<?xml version="1.0" standalone="no"?> <!DOCTYPE svg PUBLIC "-//W3C//DTD SVG 1.0//EN" "http://www.w3.org/TR/2001/REC-SVG-20010904/DTD/svg10.dtd" > <svg xmlns="http://www.w3.org/2000/svg" width="100%" height="100%">
<defs >
<font id="ContinuumLight" horiz-adv-x="429" ><font-face
    font-family="Continuum Light"
    units-per-em="1000"
    panose-1="0 0 4 0 0 0 0 0 0 0"
    ascent="952"
    descent="-219"
    alphabetic="0" />
<missing-glyph horiz-adv-x="500" d="M63 0V821H438V0H63ZM125 63H375V759H125V63Z" />
<glyph unicode=" " glyph-name="space" horiz-adv-x="282" />
<glyph unicode="!" glyph-name="exclam" horiz-adv-x="194" d="M80 96H115V700H80V96ZM70 29Q70 39 78 49T96 59Q105 59 115 50T125 28Q125 0 97 0Q70 0 70 29Z" />
<glyph unicode="&quot;" glyph-name="quotedbl" horiz-adv-x="236" d="M56 490H91L110 700H75L56 490ZM126 490L145 700H180L161 490H126Z" />
<glyph unicode="#" glyph-name="numbersign" horiz-adv-x="569" d="M56 231L64 266H176L211 434H99L106 469H219L262 679H297L254 469H366L409 679H444L401 469H512L506 434H393L358 266H470L463 231H350L306 21H271L315 231H203L159 21H124L168 231Q166 230 56
231ZM323 266L358 434H246L211 266H323Z" />
<glyph unicode="$" glyph-name="dollar" horiz-adv-x="543" d="M40 0V35H252V335H220Q70 335 46 450Q43 464 43 481V542Q43 619 89 659T213 700H252V760H287V700H500V665H287V370H329Q404 370 448 334Q495 295 495 221V150Q495 0 327 0H287V-70H252V0Q146 -2 93
-2Q43 -2 40 0ZM328 35Q396 35 426 57Q460 83 460 148V217Q460 335 329 335H287V35Q326 34 328 35ZM220 367H252V665H212Q78 665 78 543V486Q78 367 220 367Z" />
<glyph unicode="%" glyph-name="percent" horiz-adv-x="636" d="M35 504V604Q35 683 116 698Q127 700 135 700H215Q262 700 291 675T321 604V504Q321 458 292 433T215 407H135Q127 407 116 409Q35 424 35 504ZM98 0L137 4L539 702L502 700L98 0ZM315 98V197Q315
294 416 294H495Q601 294 601 197V98Q601 17 515 4Q508 2 495 2H416Q402 2 396 4Q315 18 315 98ZM135 439H221Q278 444 287 486Q289 492 289 503V605Q289 615 287 621Q278 663 221 668H135Q105 665 92 657Q74 647 68 621Q66 613 66 605V503Q66 439 135 439ZM415
34Q418 33 425 33H491Q497 33 501 34Q531 37 544 45Q562 55 567 81Q569 86 569 97V199Q569 210 567 215Q562 241 544 251Q531 259 501 262H415Q385 259 372 251Q354 241 348 215Q347 211 347 199V97Q347 64 365 49Q380 38 415 34Z" />
<glyph unicode="&amp;" glyph-name="ampersand" horiz-adv-x="617" d="M42 147V199Q42 256 78 293Q102 318 165 349L187 360L169 379L162 386L136 417Q93 468 89 509Q88 519 88 525V567Q88 580 91 594Q113 700 223 700H308Q368 700 402 662T437 562V508Q429 464
402 436Q381 415 334 391L251 349L495 104Q507 128 507 166V334H542V169Q542 115 520 78L596 0L546 1L499 51Q453 0 361 0H207Q97 0 56 85Q42 114 42 147ZM212 35H362Q424 35 453 56Q462 63 473 76L216 334L162 309Q77 270 77 202V150Q74 147 83 120Q111 35 212
35ZM148 452Q151 449 157 441L222 373L331 429Q402 465 402 526V564Q402 650 326 663Q314 665 307 665H221Q179 665 151 637T123 567V525Q123 489 148 452Z" />
<glyph unicode="&apos;" glyph-name="quotesingle" horiz-adv-x="166" d="M56 490L75 700H110L91 490H56Z" />
<glyph unicode="(" glyph-name="parenleft" horiz-adv-x="230" d="M70 185V515Q70 634 150 700H195Q188 694 172 679Q105 611 105 515V185Q105 169 110 142Q123 71 171 22Q177 16 195 0H150Q80 60 71 160Q70 171 70 185Z" />
<glyph unicode=")" glyph-name="parenright" horiz-adv-x="230" d="M35 0Q42 6 58 21Q117 81 124 166Q125 178 125 185V515Q125 535 121 558Q106 645 35 700H81Q160 630 160 515V185Q160 142 151 113Q128 39 81 0H35Z" />
<glyph unicode="*" glyph-name="asterisk" horiz-adv-x="371" d="M35 634L60 678L183 581L161 736H210L187 583L312 681L336 635L188 578L334 519L310 478L187 573L209 419H162L182 575L61 477L35 518L179 578L35 634Z" />
<glyph unicode="+" glyph-name="plus" horiz-adv-x="647" d="M71 332V365H306V611H338V365H577V332H338V82H307V332H71Z" />
<glyph unicode="," glyph-name="comma" horiz-adv-x="150" d="M28 -95L75 -6Q56 0 54 20Q53 35 62 46T87 57Q122 55 122 19Q122 14 121 8L115 -7L68 -96L28 -95Z" />
<glyph unicode="-" glyph-name="hyphen" horiz-adv-x="320" d="M35 266V301H285V266H35Z" />
<glyph unicode="." glyph-name="period" horiz-adv-x="125" d="M28 28Q28 42 38 52T63 63Q97 63 97 28Q97 13 88 3T63 -8Q49 -8 39 3T28 28Z" />
<glyph unicode="/" glyph-name="slash" horiz-adv-x="520" d="M35 0L444 700H485L76 0H35Z" />
<glyph unicode="0" glyph-name="zero" horiz-adv-x="647" d="M79 168V529Q79 700 261 700H386Q568 700 568 529V168Q568 0 386 0H261Q180 0 132 34Q78 73 78 149Q78 160 79 168ZM260 35H388Q533 35 533 171V526Q533 665 388 665H260Q114 665 114 526V171Q114 35 260 35Z" />
<glyph unicode="1" glyph-name="one" horiz-adv-x="647" d="M306 0V700H341V0H306Z" />
<glyph unicode="2" glyph-name="two" horiz-adv-x="647" d="M96 0V212Q96 287 145 327Q190 364 267 364H380Q475 364 506 435Q516 458 516 480V548Q516 555 514 573Q495 665 385 665H98V700H387Q460 700 505 660T551 548V488Q551 410 507 370T383 329H265Q206
329 171 302Q131 271 131 214V35H549V0H96Z" />
<glyph unicode="3" glyph-name="three" horiz-adv-x="647" d="M77 0V35H364Q424 35 459 67T494 158V232Q494 339 367 339H228V374H367Q494 374 494 485V559Q494 622 459 646Q431 665 364 665H77V700H364Q446 700 486 669Q529 634 529 554V482Q529 386 454 359Q529
330 529 234V163Q529 106 504 69Q458 0 364 0H77Z" />
<glyph unicode="4" glyph-name="four" horiz-adv-x="647" d="M66 251L337 700H378L100 239H483V700H518V0H483V204H91Q74 204 66 212T57 231Q57 234 58 238V239L66 251Z" />
<glyph unicode="5" glyph-name="five" horiz-adv-x="647" d="M95 0V35H368Q515 35 515 156V269Q515 343 460 379Q428 400 392 400H95V700H551V665H130V435H390Q462 435 506 388T550 269V155Q550 136 545 117Q514 0 374 0H95Z" />
<glyph unicode="6" glyph-name="six" horiz-adv-x="647" d="M70 168V541Q70 627 132 671Q173 700 240 700H577V665H240Q179 665 149 640Q105 603 105 542V437H402Q480 437 527 397Q577 354 577 276V155Q577 87 532 44T418 0H239Q70 0 70 168ZM218 37Q234 35 240
35H418Q474 35 508 68T542 157V274Q542 334 504 368T404 402H105V168Q105 51 218 37Z" />
<glyph unicode="7" glyph-name="seven" horiz-adv-x="648" d="M92 665V700H525Q556 700 556 682Q556 675 552 661Q551 659 549 654L237 0H199L517 665H92Z" />
<glyph unicode="8" glyph-name="eight" horiz-adv-x="647" d="M70 482V540Q70 700 248 700H400Q577 700 577 540V482Q577 441 553 407T491 356Q530 342 553 306T576 228V159Q576 85 531 43T410 0H237Q162 0 117 42T72 159V228Q72 272 94 307T157 356Q88 382 73
456Q72 462 70 482ZM237 35H410Q468 35 504 68T541 159V228Q541 253 521 287Q491 339 402 339H244Q155 339 125 287Q107 256 107 228V159Q110 142 113 126Q140 35 237 35ZM167 391Q197 374 240 374H407Q449 374 479 391Q542 427 542 484V541Q542 610 486 647Q459
665 400 665H248Q188 665 160 647Q105 612 105 541V484Q105 426 167 391Z" />
<glyph unicode="9" glyph-name="nine" horiz-adv-x="647" d="M70 0V35H406Q468 35 503 64Q542 96 542 157V263H245Q165 263 120 303Q71 345 71 424V545Q71 612 116 656T228 700H408Q487 700 532 656T577 532V159Q577 74 514 29Q474 0 407 0H70ZM243 298H542V532Q542
649 430 663Q414 665 406 665H229Q174 665 140 632T106 543V426Q106 365 144 332T243 298Z" />
<glyph unicode=":" glyph-name="colon" horiz-adv-x="139" d="M35 28Q35 -8 69 -8Q84 -8 93 2T103 28Q103 63 69 63Q55 63 45 53T35 28ZM35 323Q35 336 45 346T69 357Q104 357 104 321Q104 307 94 297T70 286Q55 286 45 297T35 323Z" />
<glyph unicode=";" glyph-name="semicolon" horiz-adv-x="163" d="M35 -95L75 -96L122 -7Q123 -2 127 8Q128 14 128 19Q128 55 94 57Q78 58 69 47T61 20Q63 0 82 -6L35 -95ZM57 323Q57 337 67 347T92 357Q106 357 116 347T126 322Q126 307 117 297T92 286Q57 286 57 323Z" />
<glyph unicode="&lt;" glyph-name="less" horiz-adv-x="432" d="M0 365L406 505L417 474L55 349L417 224L406 193L0 334V365Z" />
<glyph unicode="=" glyph-name="equal" horiz-adv-x="647" d="M577 265V232H71V265H577ZM577 465V432H71V465H577Z" />
<glyph unicode="&gt;" glyph-name="greater" horiz-adv-x="432" d="M432 365L26 505L15 474L377 349L15 224L26 193L432 334V365Z" />
<glyph unicode="?" glyph-name="question" horiz-adv-x="480" d="M0 665H293Q353 665 385 630T417 534V441Q417 429 415 423Q398 336 291 336H229Q133 336 133 249V98H168V247Q168 265 178 283T205 301H292Q310 301 322 303Q380 312 416 348T452 441V534Q452 593
433 625Q389 700 293 700H0V665ZM124 29Q124 39 131 49Q142 58 151 58Q163 58 171 49T180 28Q180 0 151 0Q140 0 131 9T124 29Z" />
<glyph unicode="@" glyph-name="at" horiz-adv-x="624" d="M231 0Q109 0 67 84Q49 120 49 168V439Q49 610 231 610H396Q578 610 578 439V324Q578 158 397 156H274Q239 156 216 177T193 233V273Q193 309 214 330T272 352H395V359Q395 404 349 404H194V440H341Q431
440 431 356V237Q431 208 422 192Q543 201 543 327V436Q543 575 398 575H230Q84 575 84 436V171Q84 35 230 35H398Q543 35 543 171V176L578 175V168Q578 0 396 0H231ZM395 317H271Q229 317 229 273V234Q229 191 273 191H354Q395 191 395 233V317Z" />
<glyph unicode="A" glyph-name="A" horiz-adv-x="609" d="M0 0L274 683Q279 695 284 699Q292 709 305 709Q326 709 334 683L609 0H566L486 206H122L43 0H0ZM471 242L304 673L138 242H471Z" />
<glyph unicode="B" glyph-name="B" horiz-adv-x="642" d="M70 0V700H407Q461 700 491 687Q526 671 551 629Q572 594 572 542V483Q572 377 491 347Q572 323 572 215V166Q572 88 533 44T417 0H70ZM408 35Q523 35 536 143Q537 151 537 163V213Q537 329 414 329H105V35H408ZM412
364Q524 364 538 465Q538 468 539 474Q539 482 539 482L537 542Q534 625 478 653Q454 665 409 665H107V364H412Z" />
<glyph unicode="C" glyph-name="C" horiz-adv-x="560" d="M70 160V549Q70 622 114 661T231 700H525V665H232Q175 665 140 637T105 551V162Q105 78 168 47Q192 35 244 35H523V0H244Q195 0 177 4Q147 11 118 37Q70 81 70 160Z" />
<glyph unicode="D" glyph-name="D" horiz-adv-x="646" d="M70 0V700H418Q467 700 497 684T555 627Q576 597 576 540V169Q576 93 534 47T416 0H70ZM415 35Q426 35 441 38Q541 58 541 168V540Q541 580 525 605Q487 665 416 665H105V35H415Z" />
<glyph unicode="E" glyph-name="E" horiz-adv-x="579" d="M70 154V541Q70 675 203 697Q221 700 234 700H523V665H231Q219 665 207 663Q104 646 104 541V364H522L521 329H105V158Q105 101 139 68T231 35H521V0H227Q213 0 196 3Q70 25 70 154Z" />
<glyph unicode="F" glyph-name="F" horiz-adv-x="540" d="M70 0V558Q70 604 103 646Q145 700 230 700H526V665H235Q179 665 144 637Q105 606 105 552V364H524V329H105V0H70Z" />
<glyph unicode="G" glyph-name="G" horiz-adv-x="639" d="M70 155V546Q70 618 118 660Q163 700 236 700H542V665H240Q179 665 144 637Q105 606 105 546V156Q105 73 176 43Q195 35 236 35H418Q452 35 478 52Q534 88 534 152V364H569V157Q569 65 498 21Q464 0 418
0H235Q158 0 114 39T70 155Z" />
<glyph unicode="H" glyph-name="H" horiz-adv-x="646" d="M70 0V700H105V364H541V700H576V0H541V329H105V0H70Z" />
<glyph unicode="I" glyph-name="I" horiz-adv-x="175" d="M70 0V700H105V0H70Z" />
<glyph unicode="J" glyph-name="J" horiz-adv-x="270" d="M0 0V35H21Q97 35 131 69T165 180V700H200V183Q200 135 194 110Q181 54 130 25Q85 0 23 0H0Z" />
<glyph unicode="K" glyph-name="K" horiz-adv-x="522" d="M70 0H105V700H70V0ZM143 398L465 700H518L148 355L529 0H476L122 330Q107 344 107 354Q107 364 123 379L143 398Z" />
<glyph unicode="L" glyph-name="L" horiz-adv-x="519" d="M70 163V700H105V163Q105 89 150 59Q187 35 266 35H526V0H267Q197 0 170 9Q114 28 91 66Q70 101 70 163Z" />
<glyph unicode="M" glyph-name="M" horiz-adv-x="838" d="M70 0L71 686Q71 708 91 708Q102 708 109 698Q112 694 122 673L422 45L717 676Q718 679 722 685Q736 708 749 708Q768 708 768 686V0H733V628L444 12Q436 -5 421 -5Q408 -5 402 8L399 15L390 30L105 629V0H70Z" />
<glyph unicode="N" glyph-name="N" horiz-adv-x="642" d="M70 0V685Q73 707 92 707Q103 707 120 686Q122 683 126 676L537 57V700H572V43Q572 17 571 12Q567 -8 553 -8Q549 -8 544 -6T533 3L523 16L518 22L105 645V0H70Z" />
<glyph unicode="O" glyph-name="O" horiz-adv-x="629" d="M70 168V529Q70 700 252 700H377Q559 700 559 529V168Q559 0 377 0H252Q70 0 70 168ZM251 35H379Q524 35 524 171V526Q524 665 379 665H251Q105 665 105 526V171Q105 35 251 35Z" />
<glyph unicode="P" glyph-name="P" horiz-adv-x="596" d="M70 0V700H411Q492 700 534 655Q542 648 551 635Q575 600 575 566V444Q575 364 531 321T407 278H105V0H70ZM412 313Q540 313 540 445V556Q540 607 500 637Q464 665 412 665H105V313H412Z" />
<glyph unicode="Q" glyph-name="Q" horiz-adv-x="642" d="M70 165V535Q70 590 86 622Q105 658 150 682Q184 700 257 700H386Q458 700 492 682Q537 658 556 622Q572 590 572 535V165Q572 48 477 12L461 6L561 -95H515L418 0H257Q182 0 150 17Q70 59 70 165ZM257
35H383Q537 35 537 160V537Q537 665 383 665H257Q105 665 105 537V163Q105 35 257 35Z" />
<glyph unicode="R" glyph-name="R" horiz-adv-x="619" d="M70 0V700H400Q480 700 525 660T571 542V448Q571 378 528 338T415 298H168L566 0H506L118 294Q111 297 111 312Q111 333 143 333H414Q519 333 534 428Q536 441 536 444V545Q536 665 400 665H105V0H70Z" />
<glyph unicode="S" glyph-name="S" horiz-adv-x="542" d="M42 482V541Q42 619 90 661Q135 700 214 700H500V665H213Q77 665 77 542V488Q77 432 119 399Q143 381 167 376Q179 374 221 374H329Q405 374 451 335T498 222V152Q498 77 449 36Q422 14 393 6Q370 0 328
0H43V35H328Q384 35 411 51Q463 82 463 149V218Q463 337 329 337H222Q202 337 192 338Q42 353 42 482Z" />
<glyph unicode="T" glyph-name="T" horiz-adv-x="448" d="M0 665V700H448V665H241V0H206V665H0Z" />
<glyph unicode="U" glyph-name="U" horiz-adv-x="640" d="M70 179V700H105V189Q105 106 142 71T264 35H375Q460 35 497 69T535 188V700H570V179Q570 85 515 37Q485 11 449 4Q428 0 376 0H263Q210 0 190 4Q156 11 126 36T82 94Q70 124 70 179Z" />
<glyph unicode="V" glyph-name="V" horiz-adv-x="580" d="M-7 700H31L291 44L549 700H587L321 28Q319 23 310 5Q301 -7 291 -7Q285 -7 279 -3T261 28L-7 700Z" />
<glyph unicode="W" glyph-name="W" horiz-adv-x="820" d="M14 700H50L220 56L382 673Q391 707 411 707Q422 707 430 694Q433 689 437 673L600 56L769 700H806L628 32Q623 12 619 5Q608 -15 589 -3Q579 3 572 29L411 633L247 29Q237 -8 217 -8Q207 -8 200 5Q196
11 191 32L14 700Z" />
<glyph unicode="X" glyph-name="X" horiz-adv-x="547" d="M14 0L253 355L20 700H62L274 385L486 700H527L296 355L534 0H492L274 325L55 0H14Z" />
<glyph unicode="Y" glyph-name="Y" horiz-adv-x="490" d="M-7 700H34L245 341L456 700H497L262 302V0H227V302L-7 700Z" />
<glyph unicode="Z" glyph-name="Z" horiz-adv-x="520" d="M39 52L448 665H37V700H458Q490 700 490 679Q490 665 479 649L69 35H487V0L47 1Q27 4 27 23Q27 38 39 52Z" />
<glyph unicode="[" glyph-name="bracketleft" horiz-adv-x="224" d="M70 0V700H189V665H105V35H187V0H70Z" />
<glyph unicode="\" glyph-name="backslash" horiz-adv-x="520" d="M485 0L76 700H35L444 0H485Z" />
<glyph unicode="]" glyph-name="bracketright" horiz-adv-x="224" d="M35 0V35H119V665H37V700H154V0H35Z" />
<glyph unicode="^" glyph-name="asciicircum" horiz-adv-x="440" d="M422 335H368L228 574Q227 575 227 578L226 585L224 593V598L223 592L221 585L219 576V573L77 335H26L210 646H238L422 335Z" />
<glyph unicode="_" glyph-name="underscore" horiz-adv-x="340" d="M340 -200H0V-165H340V-200Z" />
<glyph unicode="`" glyph-name="grave" horiz-adv-x="0" d="M316 592H276L187 661H259L316 592Z" />
<glyph unicode="a" glyph-name="a" horiz-adv-x="575" d="M70 135V214Q70 278 107 315T208 353H474V387Q474 497 361 497H71V529H345Q505 529 505 381V143Q505 76 471 38T370 0H211Q140 0 101 47Q70 82 70 135ZM192 33Q203 31 209 31H371Q473 31 473 135V322H206Q202
322 189 320Q101 306 101 215V137Q101 49 192 33Z" />
<glyph unicode="b" glyph-name="b" horiz-adv-x="580" d="M70 148V699H101V529H352Q510 529 510 377V152Q510 79 477 42Q453 15 420 6Q397 0 352 0H234Q227 0 215 1Q148 7 109 44T70 148ZM242 31H353Q422 31 450 59T479 157V375Q479 446 428 479Q402 496 354 496H101V150Q101
31 242 31Z" />
<glyph unicode="c" glyph-name="c" horiz-adv-x="454" d="M70 145V384Q70 529 211 529H416V497H216Q101 497 101 389V149Q101 81 148 48Q172 31 228 31H419V0H227Q170 0 142 14Q70 50 70 145Z" />
<glyph unicode="d" glyph-name="d" horiz-adv-x="580" d="M70 152V377Q70 451 112 490T228 529H479V699H510V148Q510 0 346 0H229Q182 0 160 6Q119 17 94 53T69 133Q69 142 70 152ZM228 31H338Q342 31 349 32H359Q479 45 479 150V496H227Q179 496 153 479Q101
444 101 375V157Q101 87 129 59T228 31Z" />
<glyph unicode="e" glyph-name="e" horiz-adv-x="547" d="M70 151V376Q70 451 102 487T209 529Q222 530 231 530L360 529Q442 528 474 491T506 369V355L101 178L103 155Q109 85 132 60Q159 31 226 31H506V0H233Q162 0 118 33Q69 70 69 137Q69 148 70 151ZM472
375Q474 391 474 396Q471 497 346 497H239Q171 497 139 475Q101 449 101 385V213L472 375Z" />
<glyph unicode="f" glyph-name="f" horiz-adv-x="211" d="M70 0V559Q70 682 180 698Q194 700 202 700H246V669H205Q197 669 187 667Q116 653 103 582Q101 571 101 562V529H246V497H101V0H70Z" />
<glyph unicode="g" glyph-name="g" horiz-adv-x="576" d="M70 -175V-144H351Q472 -144 472 -30V0H239Q193 0 175 3Q142 8 117 28Q70 65 70 150V377Q70 447 98 482T195 527Q210 529 220 529H332Q349 529 366 527Q441 518 473 484T506 375V-26Q506 -115 484 -139Q451
-175 328 -175H70ZM237 31H473V370Q473 438 443 467T344 497H223Q159 497 130 470T101 380V151Q101 81 135 55Q165 31 237 31Z" />
<glyph unicode="h" glyph-name="h" horiz-adv-x="576" d="M70 0V700H101V529H331Q422 529 462 497Q506 461 506 373V0H474V371Q474 437 445 467T349 497H101V0H70Z" />
<glyph unicode="i" glyph-name="i" horiz-adv-x="173" d="M72 0V529H104V0H72ZM59 610Q59 620 67 629T86 638Q97 638 105 629T114 608Q114 580 86 580Q59 580 59 610Z" />
<glyph unicode="j" glyph-name="j" horiz-adv-x="172" d="M-81 -175V-144H-39Q7 -144 39 -115T71 -41V529H102V-30Q102 -123 33 -160Q5 -175 -38 -175H-81ZM57 610Q57 620 66 629T84 638Q95 638 104 629T113 609Q113 580 85 580Q57 580 57 610Z" />
<glyph unicode="k" glyph-name="k" horiz-adv-x="444" d="M70 0V700H101V0H70ZM133 299L393 529H438L143 266L444 0H396L118 247Q110 254 110 264Q110 279 133 299Z" />
<glyph unicode="l" glyph-name="l" horiz-adv-x="171" d="M70 0V700H101V0H70Z" />
<glyph unicode="m" glyph-name="m" horiz-adv-x="752" d="M70 0V370Q70 529 214 529H266Q329 529 363 488Q369 481 379 462Q385 475 396 488Q430 529 492 529H544Q682 529 682 370V0H651V385Q651 497 542 497H492Q436 497 410 455Q393 427 393 369V0H361V369Q361
420 349 447Q334 483 291 494Q279 497 266 497H216Q101 497 101 385V0H70Z" />
<glyph unicode="n" glyph-name="n" horiz-adv-x="569" d="M70 0V396Q70 529 223 529H348Q499 529 499 396V0H468V398Q468 497 348 497H223Q101 497 101 398V0H70Z" />
<glyph unicode="o" glyph-name="o" horiz-adv-x="569" d="M70 148V373Q70 419 78 443Q89 475 119 499Q156 529 225 529H352Q499 529 499 373V148Q499 0 352 0H225Q171 0 147 11Q69 46 69 130Q69 139 70 148ZM176 34Q190 31 226 31H350Q392 31 412 40Q467 65 467
136V383Q467 497 350 497H226Q178 497 159 488Q101 461 101 383V139Q101 49 176 34Z" />
<glyph unicode="p" glyph-name="p" horiz-adv-x="576" d="M70 -175V387Q70 529 222 529H344Q506 529 506 388V150Q506 92 486 61Q446 0 363 0H101V-175H70ZM363 31Q473 31 473 148V387Q473 497 345 497H226Q101 497 101 384V31H363Z" />
<glyph unicode="q" glyph-name="q" horiz-adv-x="576" d="M70 150V388Q70 529 231 529H354Q506 529 506 387V-175H473V0H213Q128 0 88 61Q69 90 69 131Q69 141 70 150ZM212 31H473V384Q473 497 350 497H230Q161 497 130 467Q101 433 101 387V148Q101 31 212 31Z" />
<glyph unicode="r" glyph-name="r" horiz-adv-x="245" d="M70 0L71 379Q71 515 197 528Q200 528 207 529H252V497H211Q202 497 197 496Q102 487 102 379V0H70Z" />
<glyph unicode="s" glyph-name="s" horiz-adv-x="482" d="M42 379V412Q42 470 85 501Q124 529 185 529H440V497H186Q131 497 108 480Q73 454 73 413V380Q73 326 107 304Q134 286 192 286H318Q437 286 437 159V133Q437 85 423 59Q391 0 308 0H44V31H309Q398 31
404 113Q405 130 405 133L403 159Q399 208 382 228Q363 252 315 252H191Q42 252 42 379Z" />
<glyph unicode="t" glyph-name="t" horiz-adv-x="216" d="M70 0V700H101V529H251V497H101V0H70Z" />
<glyph unicode="u" glyph-name="u" horiz-adv-x="580" d="M70 142V529H101V142Q101 31 233 31H348Q478 31 478 139V529H510V142Q510 54 442 16Q413 0 348 0H233Q167 0 138 16Q70 54 70 142Z" />
<glyph unicode="v" glyph-name="v" horiz-adv-x="525" d="M0 529H36L262 43L489 529H525L286 19Q275 -5 263 -5Q253 -5 247 4Q245 8 238 19L0 529Z" />
<glyph unicode="w" glyph-name="w" horiz-adv-x="705" d="M21 529H54L193 56L329 495Q337 522 344 526Q360 536 368 518Q372 511 377 495L511 56L650 529H683L530 8Q526 -5 513 -5Q499 -5 491 17Q489 21 486 31L353 468L219 31Q208 -6 189 -6Q179 -6 172 7Q170
10 164 32L21 529Z" />
<glyph unicode="x" glyph-name="x" horiz-adv-x="485" d="M14 0L224 263L17 529H59L244 290L426 529H468L264 264L472 0H430L244 238L56 0H14Z" />
<glyph unicode="y" glyph-name="y" horiz-adv-x="573" d="M70 -175V-141H362Q421 -141 452 -105Q472 -82 472 -40V0H220Q150 0 110 36T70 143V529H101V143Q101 31 220 31H472V529H503V-37Q503 -103 465 -139T361 -175H70Z" />
<glyph unicode="z" glyph-name="z" horiz-adv-x="507" d="M44 52L434 497H33V529H453Q459 528 465 527T474 521Q478 513 475 505Q470 490 465 485L69 32L472 31V0H64Q26 0 26 20Q26 31 44 52Z" />
<glyph unicode="{" glyph-name="braceleft" horiz-adv-x="277" d="M56 350Q83 352 99 371T115 419V752Q115 805 184 805H221V785H211Q174 785 164 773T153 722V420Q153 357 94 350Q153 343 153 280V-22Q153 -60 163 -71Q174 -85 211 -85H221V-105H184Q115 -105
115 -52V281Q115 309 99 328T56 350Z" />
<glyph unicode="|" glyph-name="bar" horiz-adv-x="175" d="M70 0V700H105V0H70Z" />
<glyph unicode="}" glyph-name="braceright" horiz-adv-x="277" d="M56 -105V-85H67Q105 -85 114 -73T124 -22V280Q124 343 184 350Q173 351 159 358Q124 376 124 420V722Q124 760 115 772T67 785H56V805H94Q162 805 162 752V419Q162 391 178 372T221 350Q194
348 178 329T162 281V-52Q162 -105 94 -105H56Z" />
<glyph unicode="~" glyph-name="asciitilde" horiz-adv-x="377" d="M348 328Q348 296 331 274Q312 249 280 249Q253 249 188 272T106 296Q94 296 84 281T73 252H38Q38 282 56 310T103 338Q127 338 196 314T281 290Q314 290 314 328H348Z" />
</font>
</defs>
</svg>
